<svg width="32" height="33" viewBox="0 0 32 33" fill="none" xmlns="http://www.w3.org/2000/svg">
<path d="M25.6 22.6576C25.0752 23.7992 24.8248 24.3088 24.148 25.3176C23.2064 26.7264 21.8768 28.4808 20.2304 28.496C18.7672 28.5096 18.3912 27.5616 16.4056 27.572C14.42 27.5824 14.0056 28.5128 12.5424 28.4992C10.896 28.4848 9.63759 26.9 8.69439 25.4904C6.05839 21.5504 5.78319 16.9272 7.40879 14.4696C8.56399 12.7224 10.3872 11.7008 12.1008 11.7008C13.8456 11.7008 14.9424 12.64 16.3856 12.64C17.7856 12.64 18.6376 11.6992 20.656 11.6992C22.1808 11.6992 23.7968 12.5144 24.948 13.9232C21.176 15.9544 21.7888 21.2432 25.6 22.6576Z" stroke="black" stroke-width="1.92" stroke-miterlimit="10" stroke-linecap="square"/>
<path d="M19.648 8.2776C20.412 7.2976 20.9912 5.9144 20.7808 4.5C19.5328 4.5856 18.0744 5.3792 17.2224 6.4136C16.4496 7.352 15.8104 8.7448 16.0584 10.0984C17.42 10.1408 18.8296 9.328 19.648 8.2776Z" stroke="black" stroke-width="1.92" stroke-miterlimit="10" stroke-linecap="square"/>
</svg>
