<svg width="16" height="17" viewBox="0 0 16 17" fill="none" xmlns="http://www.w3.org/2000/svg">
<path d="M10.8572 14.7857C10.7056 14.7857 10.5603 14.7255 10.4532 14.6183L4.73887 8.90401C4.63174 8.79685 4.57156 8.65153 4.57156 8.50001C4.57156 8.34848 4.63174 8.20317 4.73887 8.09601L10.4532 2.38172C10.5609 2.27763 10.7053 2.22003 10.8551 2.22134C11.0049 2.22264 11.1482 2.28273 11.2542 2.38868C11.3601 2.49463 11.4202 2.63795 11.4215 2.78778C11.4228 2.9376 11.3652 3.08195 11.2612 3.18972L5.95087 8.50001L11.2612 13.8103C11.341 13.8902 11.3955 13.992 11.4175 14.1028C11.4395 14.2137 11.4282 14.3286 11.385 14.433C11.3417 14.5374 11.2685 14.6266 11.1746 14.6894C11.0806 14.7522 10.9702 14.7857 10.8572 14.7857Z" fill="#000"/>
</svg>
