<svg width="12" height="13" viewBox="0 0 12 13" fill="none" xmlns="http://www.w3.org/2000/svg">
<path d="M10.2857 6.5L1.71428 6.5C1.60061 6.5 1.4916 6.54515 1.41123 6.62553C1.33086 6.7059 1.28571 6.81491 1.28571 6.92857L1.28571 10.3571C1.28571 10.4708 1.33086 10.5798 1.41123 10.6602C1.4916 10.7406 1.60061 10.7857 1.71428 10.7857C1.82794 10.7857 1.93695 10.7406 2.01732 10.6602C2.0977 10.5798 2.14285 10.4708 2.14285 10.3571V9.5L9.85713 9.5L9.85713 10.3571C9.85713 10.4708 9.90229 10.5798 9.98266 10.6602C10.063 10.7406 10.172 10.7857 10.2857 10.7857C10.3994 10.7857 10.5084 10.7406 10.5888 10.6602C10.6691 10.5798 10.7143 10.4708 10.7143 10.3571L10.7143 6.92857C10.7143 6.81491 10.6691 6.7059 10.5888 6.62553C10.5084 6.54515 10.3994 6.5 10.2857 6.5Z" fill="white"/>
<path d="M9.4286 2.21428L2.57145 2.21428C2.45779 2.21428 2.34878 2.25944 2.26841 2.33981C2.18804 2.42018 2.14288 2.52919 2.14288 2.64286L2.14288 5.64286H4.28574L4.28574 4.35714C4.28574 4.24348 4.33089 4.13447 4.41127 4.0541C4.49164 3.97372 4.60065 3.92857 4.71431 3.92857L7.28574 3.92857C7.3994 3.92857 7.50841 3.97372 7.58879 4.0541C7.66916 4.13447 7.71431 4.24348 7.71431 4.35714V5.64286H9.85717V2.64286C9.85717 2.52919 9.81202 2.42018 9.73164 2.33981C9.65127 2.25944 9.54226 2.21428 9.4286 2.21428Z" fill="white"/>
</svg>
