<svg width="28" height="29" viewBox="0 0 28 29" fill="none" xmlns="http://www.w3.org/2000/svg">
<path d="M26 15.5L4 15.5L4 6.5C4 6.23478 3.89464 5.98043 3.70711 5.79289C3.51957 5.60536 3.26522 5.5 3 5.5C2.73478 5.5 2.48043 5.60536 2.29289 5.79289C2.10536 5.98043 2 6.23478 2 6.5L2 23.5C2 23.7652 2.10536 24.0196 2.29289 24.2071C2.48043 24.3946 2.73478 24.5 3 24.5C3.26522 24.5 3.51957 24.3946 3.70711 24.2071C3.89464 24.0196 4 23.7652 4 23.5L4 21.5L24 21.5V23.5C24 23.7652 24.1054 24.0196 24.2929 24.2071C24.4804 24.3946 24.7348 24.5 25 24.5C25.2652 24.5 25.5196 24.3946 25.7071 24.2071C25.8946 24.0196 26 23.7652 26 23.5V15.5Z" fill="white"/>
<path d="M9 13.5C8.40666 13.5 7.82664 13.3241 7.33329 12.9944C6.83994 12.6648 6.45543 12.1962 6.22836 11.6481C6.0013 11.0999 5.94189 10.4967 6.05765 9.91473C6.1734 9.33279 6.45912 8.79824 6.87868 8.37868C7.29824 7.95912 7.83279 7.6734 8.41473 7.55765C8.99667 7.44189 9.59987 7.5013 10.1481 7.72836C10.6962 7.95543 11.1648 8.33994 11.4944 8.83329C11.8241 9.32664 12 9.90666 12 10.5C12 11.2957 11.6839 12.0587 11.1213 12.6213C10.5587 13.1839 9.79565 13.5 9 13.5Z" fill="white"/>
<path d="M26 13.5L15 13.5C14.7348 13.5 14.4804 13.3946 14.2929 13.2071C14.1054 13.0196 14 12.7652 14 12.5L14 9.5C14 9.23478 14.1054 8.98043 14.2929 8.79289C14.4804 8.60536 14.7348 8.5 15 8.5L23 8.5C23.7956 8.5 24.5587 8.81607 25.1213 9.37868C25.6839 9.94129 26 10.7044 26 11.5V13.5Z" fill="white"/>
</svg>
