<svg width="12" height="13" viewBox="0 0 12 13" fill="none" xmlns="http://www.w3.org/2000/svg">
<path d="M9.00001 6.07143V4.78572C9.00001 3.99007 8.68394 3.227 8.12133 2.66439C7.55872 2.10179 6.79566 1.78572 6.00001 1.78572C5.20436 1.78572 4.4413 2.10179 3.87869 2.66439C3.31608 3.227 3.00001 3.99007 3.00001 4.78572V6.07143C3.00001 7.48572 1.71429 7.82857 1.71429 8.64286C1.71429 9.37143 3.38572 9.92857 6.00001 9.92857C8.61429 9.92857 10.2857 9.37143 10.2857 8.64286C10.2857 7.82857 9.00001 7.48572 9.00001 6.07143Z" stroke="white" stroke-width="1.02857" stroke-miterlimit="10" stroke-linecap="square"/>
<path d="M6 10.7857C5.56671 10.7857 5.15957 10.7711 4.77643 10.7429C4.85811 11.0034 5.02084 11.2311 5.24092 11.3927C5.461 11.5544 5.72693 11.6416 6 11.6416C6.27306 11.6416 6.539 11.5544 6.75908 11.3927C6.97916 11.2311 7.14189 11.0034 7.22357 10.7429C6.84043 10.7711 6.43329 10.7857 6 10.7857Z" fill="white"/>
</svg>
