<svg width="32" height="33" viewBox="0 0 32 33" fill="none" xmlns="http://www.w3.org/2000/svg">
<path d="M22.4 11.7C22.4239 9.60919 22.7569 7.53341 23.388 5.54C23.4195 5.43972 23.431 5.33422 23.4217 5.22952C23.4125 5.12481 23.3827 5.02295 23.3341 4.92976C23.2854 4.83657 23.2189 4.75386 23.1384 4.68637C23.0578 4.61888 22.9647 4.56792 22.8644 4.5364C22.6619 4.47275 22.4424 4.49216 22.2542 4.59035C22.066 4.68854 21.9245 4.85748 21.8608 5.06C21.1808 7.20869 20.8233 9.44639 20.8 11.7C20.8279 13.1373 21.1096 14.5583 21.632 15.8976C19.776 16.2632 17.8914 16.4648 16 16.5C14.1087 16.4637 12.2241 16.2619 10.368 15.8968C10.8903 14.5578 11.172 13.137 11.2 11.7C11.1768 9.44639 10.8193 7.20869 10.1392 5.06C10.0756 4.85748 9.93407 4.68854 9.74586 4.59035C9.55764 4.49216 9.33813 4.47275 9.13561 4.5364C8.9331 4.60005 8.76416 4.74155 8.66596 4.92976C8.56777 5.11797 8.54836 5.33748 8.61201 5.54C9.24317 7.53341 9.5761 9.60919 9.60001 11.7C9.56134 13.0304 9.28667 14.3433 8.78881 15.5776C7.96881 17.9888 6.94881 20.9904 8.00961 27.8224C8.046 28.0285 8.16167 28.2121 8.33182 28.3338C8.50198 28.4556 8.71307 28.5059 8.91985 28.4739C9.12663 28.4418 9.31264 28.3301 9.43799 28.1625C9.56334 27.995 9.61806 27.785 9.59041 27.5776C9.20391 25.3744 9.07771 23.1334 9.21441 20.9008C12.02 21.3184 14.5352 24.0208 15.2 24.7912V27.7C15.2 27.9122 15.2843 28.1157 15.4343 28.2657C15.5844 28.4157 15.7878 28.5 16 28.5C16.2122 28.5 16.4157 28.4157 16.5657 28.2657C16.7157 28.1157 16.8 27.9122 16.8 27.7V24.7912C17.4656 24.0232 19.9808 21.3224 22.7864 20.9048C22.9217 23.1362 22.7952 25.3757 22.4096 27.5776C22.3913 27.6811 22.3936 27.7872 22.4163 27.8898C22.439 27.9924 22.4817 28.0895 22.542 28.1756C22.6022 28.2617 22.6788 28.3351 22.7675 28.3916C22.8561 28.448 22.9549 28.4865 23.0584 28.5048C23.1619 28.5231 23.268 28.5208 23.3706 28.4981C23.4732 28.4754 23.5703 28.4327 23.6564 28.3724C23.7425 28.3122 23.8159 28.2356 23.8724 28.147C23.9289 28.0584 23.9673 27.9595 23.9856 27.856L23.9904 27.8224C25.052 20.9904 24.0312 17.9888 23.2112 15.5776C22.7134 14.3433 22.4387 13.0304 22.4 11.7Z" fill="white"/>
<path d="M16 14.1C16.4418 14.1 16.8 13.7418 16.8 13.3C16.8 12.8582 16.4418 12.5 16 12.5C15.5582 12.5 15.2 12.8582 15.2 13.3C15.2 13.7418 15.5582 14.1 16 14.1Z" fill="white"/>
<path d="M3.84001 8.98C3.78058 8.93543 3.70992 8.90829 3.63593 8.90162C3.56195 8.89495 3.48757 8.90901 3.42113 8.94223C3.35468 8.97545 3.29881 9.02652 3.25975 9.08971C3.2207 9.1529 3.20001 9.22572 3.20001 9.3L3.20001 14.1C3.20001 14.1742 3.22067 14.247 3.25966 14.3101C3.29866 14.3733 3.35445 14.4243 3.42081 14.4576C3.47651 14.4853 3.53782 14.4998 3.60001 14.5C3.68656 14.5 3.77077 14.4719 3.84001 14.42L7.04001 12.02C7.08969 11.9827 7.13001 11.9344 7.15778 11.8789C7.18555 11.8233 7.20001 11.7621 7.20001 11.7C7.20001 11.6379 7.18555 11.5767 7.15778 11.5211C7.13001 11.4656 7.08969 11.4173 7.04001 11.38L3.84001 8.98Z" fill="white"/>
<path d="M28.5792 8.9424C28.5125 8.90981 28.4382 8.89608 28.3643 8.90271C28.2904 8.90933 28.2198 8.93606 28.16 8.98L24.96 11.38C24.9103 11.4173 24.87 11.4656 24.8422 11.5211C24.8144 11.5767 24.8 11.6379 24.8 11.7C24.8 11.7621 24.8144 11.8233 24.8422 11.8789C24.87 11.9344 24.9103 11.9827 24.96 12.02L28.16 14.42C28.2292 14.4719 28.3134 14.5 28.4 14.5C28.4622 14.4998 28.5235 14.4853 28.5792 14.4576C28.6455 14.4243 28.7013 14.3733 28.7403 14.3101C28.7793 14.247 28.8 14.1742 28.8 14.1V9.3C28.8 9.22578 28.7793 9.15302 28.7403 9.08986C28.7013 9.02671 28.6455 8.97565 28.5792 8.9424Z" fill="white"/>
</svg>
