<svg width="28" height="29" viewBox="0 0 28 29" fill="none" xmlns="http://www.w3.org/2000/svg">
<path d="M16.586 11.939C16.586 11.939 17.7 5.358 13.138 2.5C13.0702 3.63092 12.7645 4.73482 12.241 5.73958C11.7175 6.74435 10.988 7.62738 10.1 8.331C8.14899 10.046 4.48099 13.9 4.51999 18.01C4.50718 19.7671 4.98531 21.4929 5.90051 22.9929C6.81572 24.493 8.13163 25.7076 9.69999 26.5C9.75603 25.7068 9.96984 24.9327 10.3289 24.2232C10.688 23.5137 11.185 22.8829 11.791 22.368C12.3046 21.9731 12.7345 21.4799 13.0554 20.9171C13.3763 20.3543 13.5818 19.7331 13.66 19.09C15.0027 19.8036 16.1372 20.8534 16.9527 22.1368C17.7681 23.4202 18.2365 24.8933 18.312 26.412V26.432C19.7911 25.753 21.0537 24.6783 21.9603 23.3267C22.8668 21.9751 23.382 20.3991 23.449 18.773C23.773 14.91 21.657 9.661 19.781 7.945C19.0728 9.52626 17.9732 10.9009 16.586 11.939Z" fill="white"/>
</svg>
