<svg width="60" height="61" viewBox="0 0 60 61" fill="none" xmlns="http://www.w3.org/2000/svg">
<path d="M20.4265 6.73645C20.4265 6.23783 20.2288 5.75965 19.8768 5.40708C19.5249 5.05451 19.0475 4.85645 18.5497 4.85645C18.052 4.85645 17.5746 5.05451 17.2226 5.40708C16.8706 5.75965 16.6729 6.23783 16.6729 6.73645V10.697C13.0694 10.9853 10.7072 11.6922 8.97053 13.4343C7.23136 15.1739 6.52569 17.5427 6.23541 21.1498H55.8881C55.5977 17.5402 54.8921 15.1739 53.1529 13.4343C51.4162 11.6922 49.0515 10.9853 45.4505 10.6944V6.73645C45.4505 6.23783 45.2528 5.75965 44.9008 5.40708C44.5488 5.05451 44.0715 4.85645 43.5737 4.85645C43.076 4.85645 42.5985 5.05451 42.2466 5.40708C41.8947 5.75965 41.6969 6.23783 41.6969 6.73645V10.529C40.0329 10.4965 38.166 10.4965 36.0665 10.4965H26.0569C23.9574 10.4965 22.0907 10.4965 20.4265 10.529V6.73645Z" fill="white"/>
<path fill-rule="evenodd" clip-rule="evenodd" d="M6.0379 30.4798C6.0379 28.3767 6.0379 26.5067 6.07043 24.8398H56.0534C56.0859 26.5067 56.0859 28.3767 56.0859 30.4798V35.4931C56.0859 44.9457 56.0859 49.6734 53.1531 52.6086C50.2227 55.5465 45.5032 55.5465 36.0667 55.5465H26.0571C16.6205 55.5465 11.901 55.5465 8.97071 52.6086C6.0379 49.6734 6.0379 44.9457 6.0379 35.4931V30.4798ZM43.5739 35.4931C44.2375 35.4931 44.874 35.229 45.3433 34.7589C45.8126 34.2889 46.0763 33.6512 46.0763 32.9865C46.0763 32.3216 45.8126 31.684 45.3433 31.2139C44.874 30.7439 44.2375 30.4798 43.5739 30.4798C42.9103 30.4798 42.2737 30.7439 41.8044 31.2139C41.3352 31.684 41.0715 32.3216 41.0715 32.9865C41.0715 33.6512 41.3352 34.2889 41.8044 34.7589C42.2737 35.229 42.9103 35.4931 43.5739 35.4931ZM43.5739 45.5198C44.2375 45.5198 44.874 45.2557 45.3433 44.7856C45.8126 44.3156 46.0763 43.6779 46.0763 43.0131C46.0763 42.3483 45.8126 41.7107 45.3433 41.2406C44.874 40.7705 44.2375 40.5065 43.5739 40.5065C42.9103 40.5065 42.2737 40.7705 41.8044 41.2406C41.3352 41.7107 41.0715 42.3483 41.0715 43.0131C41.0715 43.6779 41.3352 44.3156 41.8044 44.7856C42.2737 45.2557 42.9103 45.5198 43.5739 45.5198ZM33.5643 32.9865C33.5643 33.6512 33.3007 34.2889 32.8314 34.7589C32.3621 35.229 31.7256 35.4931 31.0619 35.4931C30.3982 35.4931 29.7618 35.229 29.2925 34.7589C28.8232 34.2889 28.5595 33.6512 28.5595 32.9865C28.5595 32.3216 28.8232 31.684 29.2925 31.2139C29.7618 30.7439 30.3982 30.4798 31.0619 30.4798C31.7256 30.4798 32.3621 30.7439 32.8314 31.2139C33.3007 31.684 33.5643 32.3216 33.5643 32.9865ZM33.5643 43.0131C33.5643 43.6779 33.3007 44.3156 32.8314 44.7856C32.3621 45.2557 31.7256 45.5198 31.0619 45.5198C30.3982 45.5198 29.7618 45.2557 29.2925 44.7856C28.8232 44.3156 28.5595 43.6779 28.5595 43.0131C28.5595 42.3483 28.8232 41.7107 29.2925 41.2406C29.7618 40.7705 30.3982 40.5065 31.0619 40.5065C31.7256 40.5065 32.3621 40.7705 32.8314 41.2406C33.3007 41.7107 33.5643 42.3483 33.5643 43.0131ZM18.5499 35.4931C19.2136 35.4931 19.8501 35.229 20.3194 34.7589C20.7887 34.2889 21.0523 33.6512 21.0523 32.9865C21.0523 32.3216 20.7887 31.684 20.3194 31.2139C19.8501 30.7439 19.2136 30.4798 18.5499 30.4798C17.8862 30.4798 17.2497 30.7439 16.7804 31.2139C16.3111 31.684 16.0475 32.3216 16.0475 32.9865C16.0475 33.6512 16.3111 34.2889 16.7804 34.7589C17.2497 35.229 17.8862 35.4931 18.5499 35.4931ZM18.5499 45.5198C19.2136 45.5198 19.8501 45.2557 20.3194 44.7856C20.7887 44.3156 21.0523 43.6779 21.0523 43.0131C21.0523 42.3483 20.7887 41.7107 20.3194 41.2406C19.8501 40.7705 19.2136 40.5065 18.5499 40.5065C17.8862 40.5065 17.2497 40.7705 16.7804 41.2406C16.3111 41.7107 16.0475 42.3483 16.0475 43.0131C16.0475 43.6779 16.3111 44.3156 16.7804 44.7856C17.2497 45.2557 17.8862 45.5198 18.5499 45.5198Z" fill="white"/>
</svg>
