<svg width="28" height="29" viewBox="0 0 28 29" fill="none" xmlns="http://www.w3.org/2000/svg">
<path d="M8 8.5C8.552 8.5 9 8.053 9 7.5L9 3.5C9 2.947 8.552 2.5 8 2.5C7.448 2.5 7 2.947 7 3.5L7 7.5C7 8.053 7.448 8.5 8 8.5Z" fill="white"/>
<path d="M25 5.5H22V7.388C22 8.385 21.321 9.311 20.338 9.473C19.086 9.679 18 8.714 18 7.501V5.5L10 5.5V7.388C10 8.385 9.321 9.311 8.338 9.473C7.086 9.679 6 8.714 6 7.501V5.5L3 5.5C2.448 5.5 2 5.948 2 6.5L2 24.5C2 25.052 2.448 25.5 3 25.5L25 25.5C25.552 25.5 26 25.052 26 24.5L26 6.5C26 5.948 25.552 5.5 25 5.5ZM24 23.5L4 23.5L4 11.5L24 11.5L24 23.5Z" fill="white"/>
<path d="M20 8.5C20.552 8.5 21 8.053 21 7.5V3.5C21 2.947 20.552 2.5 20 2.5C19.448 2.5 19 2.947 19 3.5V7.5C19 8.053 19.448 8.5 20 8.5Z" fill="white"/>
</svg>
