<svg width="26" height="27" viewBox="0 0 26 27" fill="none" xmlns="http://www.w3.org/2000/svg">
<path d="M10.1563 12.3249C10.2798 12.2536 10.3824 12.151 10.4537 12.0274C10.525 11.9039 10.5626 11.7637 10.5625 11.6211L10.5625 4.30859C10.5618 4.17906 10.5301 4.05157 10.4701 3.93676C10.4101 3.82196 10.3235 3.72317 10.2176 3.64863C10.1116 3.57409 9.98939 3.52596 9.86106 3.50826C9.73274 3.49056 9.60204 3.5038 9.47987 3.54688C7.10836 4.3862 5.11402 6.04393 3.85536 8.22207C2.59669 10.4002 2.15626 12.9559 2.61323 15.4297C2.63692 15.5576 2.69098 15.678 2.77086 15.7807C2.85075 15.8833 2.95412 15.9653 3.07229 16.0198C3.17879 16.0696 3.29496 16.0952 3.41253 16.0949C3.55513 16.095 3.69524 16.0575 3.81878 15.9862L10.1563 12.3249ZM8.93753 5.53953L8.93753 11.1519L4.07471 13.958C4.06253 13.8047 4.06253 13.6503 4.06253 13.5C4.06397 11.853 4.51985 10.2384 5.37999 8.83385C6.24012 7.42932 7.47115 6.28938 8.93753 5.53953ZM22.1752 8.27156C22.166 8.25328 22.1569 8.23398 22.1457 8.2157C22.1346 8.19742 22.1254 8.18219 22.1142 8.16594C21.183 6.57527 19.8518 5.25585 18.253 4.33866C16.6542 3.42148 14.8433 2.93844 13 2.9375C12.7845 2.9375 12.5779 3.0231 12.4255 3.17548C12.2731 3.32785 12.1875 3.53451 12.1875 3.75L12.1875 13.0765L4.18339 17.7382C4.0905 17.792 4.00921 17.8638 3.94421 17.9492C3.87921 18.0347 3.83179 18.1321 3.80468 18.236C3.77758 18.3399 3.77133 18.4481 3.7863 18.5544C3.80127 18.6607 3.83716 18.763 3.8919 18.8554C5.06624 20.8551 6.86606 22.4128 9.01362 23.2881C11.1612 24.1633 13.5371 24.3074 15.7747 23.6982C18.0123 23.0891 19.9873 21.7604 21.3947 19.9173C22.8022 18.0742 23.564 15.8191 23.5625 13.5C23.5649 11.6659 23.0865 9.86322 22.1752 8.27156ZM13.8125 4.59906C15.1012 4.71768 16.3487 5.11455 17.469 5.76228C18.5893 6.41002 19.5556 7.29318 20.3014 8.35078L13.8125 12.1299L13.8125 4.59906ZM13 22.4375C11.5816 22.4339 10.1842 22.0944 8.92224 21.4469C7.66025 20.7994 6.56952 19.8623 5.73932 18.7122L13.3971 14.2526L13.4195 14.2384L21.1149 9.75641C21.743 11.1181 22.0184 12.6159 21.9157 14.112C21.813 15.6081 21.3355 17.0542 20.5273 18.3173C19.719 19.5805 18.6059 20.6199 17.2905 21.3399C15.975 22.0599 14.4996 22.4374 13 22.4375Z" fill="#FE763E"/>
</svg>
