<svg width="24" height="24" viewBox="0 0 24 24" fill="none" xmlns="http://www.w3.org/2000/svg">
<path d="M11.9999 13.7143C12.9467 13.7143 13.7142 12.9468 13.7142 12C13.7142 11.0532 12.9467 10.2857 11.9999 10.2857C11.0532 10.2857 10.2856 11.0532 10.2856 12C10.2856 12.9468 11.0532 13.7143 11.9999 13.7143Z" stroke="#9095A0" stroke-width="2.05714" stroke-miterlimit="10" stroke-linecap="square"/>
<path d="M4.28582 13.7143C5.23259 13.7143 6.0001 12.9468 6.0001 12C6.0001 11.0532 5.23259 10.2857 4.28582 10.2857C3.33905 10.2857 2.57153 11.0532 2.57153 12C2.57153 12.9468 3.33905 13.7143 4.28582 13.7143Z" stroke="#9095A0" stroke-width="2.05714" stroke-miterlimit="10" stroke-linecap="square"/>
<path d="M19.7143 13.7143C20.6611 13.7143 21.4286 12.9468 21.4286 12C21.4286 11.0532 20.6611 10.2857 19.7143 10.2857C18.7675 10.2857 18 11.0532 18 12C18 12.9468 18.7675 13.7143 19.7143 13.7143Z" stroke="#9095A0" stroke-width="2.05714" stroke-miterlimit="10" stroke-linecap="square"/>
</svg>
