<svg width="20" height="21" viewBox="0 0 20 21" fill="none" xmlns="http://www.w3.org/2000/svg">
<path d="M2.40926 11.345C2.23599 11.0973 2.14307 10.8023 2.14307 10.5C2.14307 10.1977 2.23599 9.90271 2.40926 9.65499C3.53283 8.06428 6.29926 4.78571 9.99997 4.78571C13.7007 4.78571 16.4671 8.06428 17.5907 9.65499C17.7639 9.90271 17.8569 10.1977 17.8569 10.5C17.8569 10.8023 17.7639 11.0973 17.5907 11.345C16.4671 12.9357 13.7007 16.2143 9.99997 16.2143C6.29926 16.2143 3.53283 12.9357 2.40926 11.345Z" stroke="#171A1F" stroke-width="1.71429" stroke-miterlimit="10" stroke-linecap="square"/>
<path d="M9.99997 13.3571C11.5779 13.3571 12.8571 12.078 12.8571 10.5C12.8571 8.92204 11.5779 7.64285 9.99997 7.64285C8.42201 7.64285 7.14282 8.92204 7.14282 10.5C7.14282 12.078 8.42201 13.3571 9.99997 13.3571Z" stroke="#171A1F" stroke-width="1.71429" stroke-miterlimit="10" stroke-linecap="square"/>
<path d="M2.85718 17.6429L17.1429 3.35715" stroke="#171A1F" stroke-width="1.71429" stroke-miterlimit="10" stroke-linecap="square"/>
</svg>
