<svg width="32" height="33" viewBox="0 0 32 33" fill="none" xmlns="http://www.w3.org/2000/svg">
<path d="M28.8 16.5C28.7996 14.0539 28.0983 11.6592 26.7792 9.59931C25.4601 7.53941 23.5784 5.9006 21.3569 4.8769C19.1353 3.8532 16.667 3.48748 14.2441 3.82303C11.8211 4.15858 9.54507 5.18134 7.68534 6.77025C5.82562 8.35916 4.4601 10.4477 3.75046 12.7885C3.04082 15.1294 3.01677 17.6246 3.68115 19.9787C4.34553 22.3328 5.67053 24.4472 7.49927 26.0717C9.32802 27.6961 11.5839 28.7626 14 29.1448L14 20.2H10.7504V16.5H14L14 13.68C14 10.472 15.9112 8.7 18.8344 8.7C19.7944 8.71332 20.7521 8.79674 21.7 8.9496L21.7 12.1L20.0856 12.1C19.8104 12.0635 19.5306 12.0893 19.2669 12.1756C19.0031 12.2619 18.7622 12.4064 18.5619 12.5985C18.3616 12.7906 18.207 13.0253 18.1098 13.2852C18.0125 13.5451 17.975 13.8236 18 14.1L18 16.5L21.5504 16.5L20.9824 20.2H18L18 29.1448C21.011 28.6685 23.7532 27.1331 25.733 24.8151C27.7129 22.497 28.8004 19.5485 28.8 16.5Z" fill="#1877F2"/>
</svg>
