<svg width="18" height="24" viewBox="0 0 18 24" fill="none" xmlns="http://www.w3.org/2000/svg">
<path fill-rule="evenodd" clip-rule="evenodd" d="M9.0772 23.8111C3.8252 23.6943 0 20.2796 0 15.9386C0 12.2484 1.896 9.76751 4.7438 6.81301C6.6031 4.88421 7.3094 3.08281 7.7783 1.88691C8.0276 1.25101 8.2098 0.786308 8.4625 0.564808C9.1904 -0.0734923 13.0955 4.22121 14.1678 5.77391C16.8597 9.67211 17.8184 11.4777 17.8564 15.7468C17.8944 20.0159 14.3293 23.928 9.0772 23.8111ZM10.0108 15.3083C9.4073 14.5313 8.7933 13.7406 8.3881 12.9C8.0042 13.4294 7.5865 14.0631 7.192 14.7778C6.202 16.572 5.7 18.2543 5.7 19.778C5.7 21.72 7.1579 23.3 8.95 23.3C10.7421 23.3 12.2 21.72 12.2 19.778C12.2 18.1271 11.087 16.694 10.0108 15.3083Z" fill="#2ACCCF"/>
</svg>
