<svg width="32" height="33" viewBox="0 0 32 33" fill="none" xmlns="http://www.w3.org/2000/svg">
<path d="M27.5064 14.3184L16.052 14.3184L16.052 19.2272L22.544 19.2272C21.504 22.5 18.944 23.5912 16 23.5912C14.8594 23.5927 13.7352 23.319 12.7229 22.7934C11.7107 22.2678 10.8401 21.5058 10.1851 20.572C9.53015 19.6382 9.1101 18.5602 8.9606 17.4294C8.8111 16.2987 8.93658 15.1485 9.32638 14.0766C9.71618 13.0047 10.3588 12.0426 11.1997 11.272C12.0406 10.5014 13.055 9.94498 14.1568 9.65002C15.2586 9.35505 16.4153 9.33022 17.5288 9.57763C18.6422 9.82504 19.6796 10.3374 20.5528 11.0712L24.12 7.6736C22.6835 6.35047 20.9458 5.39794 19.0577 4.8987C17.1696 4.39946 15.1881 4.36859 13.2854 4.80879C11.3827 5.24898 9.61611 6.14692 8.13911 7.42467C6.6621 8.70241 5.51928 10.3213 4.80984 12.1409C4.10041 13.9605 3.8458 15.9257 4.06812 17.866C4.29044 19.8063 4.98298 21.6631 6.0856 23.275C7.18823 24.887 8.66763 26.2054 10.3954 27.116C12.1231 28.0265 14.047 28.5016 16 28.5C22.6168 28.5 28.5976 24.136 27.5064 14.3184Z" fill="#EA4335"/>
</svg>
