<svg width="28" height="29" viewBox="0 0 28 29" fill="none" xmlns="http://www.w3.org/2000/svg">
<path d="M8.43401 13.5L11.143 8.985C11.2371 8.82362 11.3752 8.69234 11.5411 8.60646C11.707 8.52059 11.8939 8.48366 12.08 8.5C12.2657 8.51477 12.4436 8.5811 12.5936 8.69153C12.7436 8.80196 12.8597 8.95209 12.929 9.125L16.18 17.254L18.143 13.982C18.2322 13.8346 18.358 13.7128 18.5082 13.6284C18.6583 13.5439 18.8277 13.4997 19 13.5L25.339 13.5C25.7473 12.5509 25.9716 11.5328 26 10.5C26.0057 9.57915 25.8286 8.66633 25.4788 7.81447C25.129 6.96261 24.6136 6.18867 23.9625 5.53752C23.3113 4.88637 22.5374 4.37097 21.6855 4.02121C20.8337 3.67145 19.9209 3.49429 19 3.5C17.1216 3.5129 15.3243 4.26773 14 5.6C12.6757 4.26773 10.8785 3.5129 9.00001 3.5C8.07916 3.49429 7.16634 3.67145 6.31449 4.02121C5.46263 4.37097 4.68869 4.88637 4.03754 5.53752C3.38639 6.18867 2.87099 6.96261 2.52123 7.81447C2.17146 8.66633 1.9943 9.57915 2.00001 10.5C2.02845 11.5328 2.25276 12.5509 2.66101 13.5L8.43401 13.5Z" fill="white"/>
<path d="M19.566 15.5L16.857 20.015C16.7681 20.1629 16.6425 20.2853 16.4923 20.3703C16.3422 20.4553 16.1726 20.5 16 20.5H15.92C15.7343 20.4852 15.5565 20.4189 15.4065 20.3085C15.2565 20.198 15.1403 20.0479 15.071 19.875L11.82 11.743L9.85701 15.015C9.76814 15.1629 9.64252 15.2853 9.49235 15.3703C9.34217 15.4553 9.17256 15.5 9.00001 15.5L3.64801 15.5C6.71301 20.789 13.022 26 13.4 26.3C13.4788 26.3759 13.5736 26.4332 13.6774 26.4678C13.7812 26.5024 13.8914 26.5134 14 26.5C14.2125 26.4792 14.4176 26.4109 14.6 26.3C14.978 26 21.287 20.789 24.352 15.5L19.566 15.5Z" fill="white"/>
</svg>
