<svg width="12" height="13" viewBox="0 0 12 13" fill="none" xmlns="http://www.w3.org/2000/svg">
<path d="M4.28571 10.7857L8.66957 10.7857C8.85292 10.7857 9.03144 10.727 9.17893 10.6181C9.32642 10.5092 9.4351 10.3558 9.489 10.1806L10.6757 6.32342C10.7151 6.19528 10.7239 6.05968 10.7014 5.92752C10.6789 5.79535 10.6257 5.67031 10.5461 5.56244C10.4665 5.45457 10.3627 5.36688 10.243 5.30641C10.1234 5.24594 9.99121 5.21439 9.85714 5.21428L6.85714 5.21428L6.85714 3.49999C6.85714 2.48299 6.321 2.00257 5.67257 1.84571C5.60931 1.83085 5.5435 1.83049 5.48008 1.84464C5.41665 1.8588 5.35725 1.88711 5.3063 1.92746C5.25536 1.96781 5.2142 2.01916 5.1859 2.07766C5.15759 2.13615 5.14288 2.20029 5.14286 2.26528V3.92857L3 6.49999" stroke="#535CE8" stroke-width="1.02857" stroke-miterlimit="10"/>
<path d="M2.99999 5.64288H1.28571L1.28571 10.7857H2.99999L2.99999 5.64288Z" stroke="#535CE8" stroke-width="1.02857" stroke-miterlimit="10" stroke-linecap="square"/>
</svg>
