<svg width="42" height="43" viewBox="0 0 42 43" fill="none" xmlns="http://www.w3.org/2000/svg">
<path fill-rule="evenodd" clip-rule="evenodd" d="M1.50997 27.6953L1.29932 27.4551L1.61742 27.1399C2.35615 26.4693 2.97948 25.7863 3.69615 25.2768C3.69615 25.2768 3.70939 25.2685 3.73586 25.2444C11.2264 19.9452 17.6191 22.4637 20.3118 24.0291C20.3295 24.0338 20.3427 24.0421 20.3471 24.0467C20.3515 24.0513 20.3515 24.0513 20.356 24.056C21.2347 24.5359 21.7199 24.9006 21.7199 24.9006L19.2589 27.4934L14.8469 32.1239C14.304 32.6926 13.6915 33.1381 13.0366 33.4586C13.0313 33.4586 13.0278 33.4632 13.0234 33.4632C10.636 34.6433 7.70136 34.1931 5.72964 32.1239L1.50997 27.6953Z" fill="#373FFE"/>
<path d="M40.4878 28.684C40.311 29.6198 39.943 30.5151 39.3844 31.2919C39.3843 31.2965 39.3795 31.3009 39.3747 31.3054C39.3699 31.3098 39.3663 31.3143 39.3626 31.3188C39.359 31.3232 39.3554 31.3277 39.3505 31.3321C39.0991 31.6778 38.8117 32.005 38.4839 32.3082C37.1121 33.5723 35.3475 34.1735 33.5982 34.1221C31.8518 34.0707 30.1264 33.3669 28.8313 32.0245L24.2763 27.2998C23.9556 27.0154 23.6514 26.7116 23.3471 26.4077C22.739 25.8003 22.1305 25.1925 21.3895 24.7389L21.3835 24.735C21.3618 24.7209 21.3373 24.7049 21.312 24.6921C21.2532 24.6579 21.1933 24.6226 21.1313 24.586C21.0676 24.5485 21.0018 24.5096 20.9327 24.4694H20.9281C20.9225 24.4647 20.9225 24.4647 20.9188 24.4647V24.46C20.9142 24.4553 20.9004 24.446 20.8819 24.4413C20.4205 24.1821 19.8575 23.8986 19.2041 23.63C19.0942 23.5832 18.9844 23.5374 18.87 23.4962C18.7725 23.4563 18.6717 23.4206 18.571 23.3849C18.5534 23.3786 18.5359 23.3724 18.5184 23.3661C17.9056 23.1434 17.229 22.9394 16.4972 22.7869C16.3736 22.7542 16.2499 22.7308 16.1225 22.7083C15.8798 22.6569 15.6333 22.6194 15.3768 22.5829C15.148 22.5501 14.9154 22.5231 14.6772 22.5034C14.5905 22.4893 14.5038 22.4847 14.417 22.481C14.2749 22.4669 14.1336 22.4575 13.9869 22.4529C12.5509 22.3827 10.9737 22.5137 9.29118 22.9628C9.11771 23.0087 8.93958 23.0602 8.76052 23.1153C8.32677 23.2454 7.88744 23.3989 7.44352 23.5748C7.31617 23.6254 7.19254 23.6768 7.06885 23.732C7.05273 23.7389 7.03655 23.7458 7.02037 23.7526C6.90437 23.8019 6.78775 23.8515 6.67106 23.9032C6.64136 23.9169 6.6116 23.9306 6.58184 23.9442C6.4793 23.9913 6.37631 24.0385 6.27333 24.0885C6.2375 24.1062 6.20141 24.1238 6.1652 24.1414C6.06704 24.1892 5.96799 24.2375 5.87092 24.2888C5.12153 24.6687 4.35736 25.1187 3.58489 25.6428C3.57719 25.6475 3.57091 25.6524 3.56448 25.6575C3.55935 25.6616 3.55412 25.6658 3.54798 25.6699C3.52122 25.6933 3.50738 25.7027 3.50738 25.7027C3.19635 25.9113 2.88534 26.1387 2.56971 26.3801C2.22234 26.6459 1.92102 26.9117 1.58996 27.2037C1.49442 27.288 1.39641 27.3745 1.29409 27.4638C1.1179 27.6641 1.90245 26.7404 1.90245 26.7404L9.85327 18.6791L9.8671 18.6613L10.3978 18.1223L15.5826 12.87C15.5826 12.87 15.5872 12.8654 15.601 12.8522C15.6057 12.8429 15.6149 12.8336 15.6195 12.8289L17.5484 10.8769C18.1705 10.2462 18.8838 9.76432 19.648 9.43498C22.1075 8.35513 25.0701 8.83798 27.082 10.8769L34.4186 18.3162L35.9809 19.8102L38.7379 22.6027C40.2984 24.2214 40.8823 26.5345 40.4947 28.6471C40.4926 28.6594 40.4901 28.6717 40.4878 28.684Z" fill="#5686FF"/>
<path d="M31.9113 32.8071C36.2611 30.657 37.7588 24.9069 35.2565 19.9639C34.79 19.0423 34.2174 18.2139 33.5662 17.4898L38.8009 22.7305C41.0625 25.0486 41.2728 28.8081 39.4474 31.3166C39.4473 31.3211 39.4425 31.3255 39.4377 31.3299C39.4329 31.3343 39.4292 31.3387 39.4256 31.3431C39.4219 31.3475 39.4183 31.3519 39.4135 31.3563C39.162 31.6979 38.8747 32.0212 38.5468 32.3209C37.1751 33.5699 35.4104 34.164 33.6612 34.1132C32.603 34.0825 31.5525 33.815 30.6008 33.3139C31.0465 33.1863 31.4847 33.0179 31.9113 32.8071Z" fill="#92B1FF"/>
</svg>
