<svg width="36" height="37" viewBox="0 0 36 37" fill="none" xmlns="http://www.w3.org/2000/svg">
<path fill-rule="evenodd" clip-rule="evenodd" d="M1.32161 23.8097L1.14154 23.6043L1.41347 23.3349C2.04496 22.7616 2.57781 22.1778 3.19045 21.7423C3.19045 21.7423 3.20176 21.7352 3.22439 21.7145C9.62762 17.1846 15.0923 19.3375 17.3942 20.6757C17.4093 20.6797 17.4206 20.6868 17.4243 20.6907C17.4281 20.6947 17.4281 20.6947 17.4319 20.6986C18.1831 21.1089 18.5979 21.4207 18.5979 21.4207L16.4941 23.6371L12.7225 27.5954C12.2585 28.0815 11.7348 28.4624 11.1751 28.7364C11.1705 28.7364 11.1675 28.7403 11.1637 28.7403C9.1229 29.7491 6.61425 29.3642 4.92875 27.5954L1.32161 23.8097Z" fill="#373FFE"/>
<path d="M34.6602 24.6411C34.509 25.4411 34.1945 26.2065 33.717 26.8705C33.7169 26.8744 33.7128 26.8782 33.7087 26.882C33.7046 26.8858 33.7015 26.8896 33.6983 26.8934C33.6953 26.8973 33.6921 26.9011 33.688 26.9048C33.4731 27.2004 33.2274 27.4801 32.9472 27.7393C31.7745 28.8198 30.266 29.3338 28.7707 29.2898C27.2778 29.2459 25.8029 28.6443 24.6957 27.4967L20.8019 23.4579C20.5278 23.2148 20.2678 22.9551 20.0077 22.6953C19.4878 22.176 18.9677 21.6565 18.3342 21.2687L18.3291 21.2654C18.3106 21.2533 18.2896 21.2397 18.268 21.2287C18.2177 21.1995 18.1665 21.1693 18.1135 21.138C18.0591 21.1059 18.0028 21.0727 17.9437 21.0383H17.9398C17.935 21.0343 17.935 21.0343 17.9319 21.0343V21.0303C17.9279 21.0263 17.9161 21.0183 17.9003 21.0143C17.5059 20.7928 17.0246 20.5504 16.466 20.3208C16.3722 20.2808 16.2783 20.2416 16.1805 20.2064C16.0971 20.1723 16.011 20.1418 15.9248 20.1112C15.9098 20.1059 15.8948 20.1006 15.8799 20.0952C15.356 19.9049 14.7777 19.7305 14.1521 19.6001C14.0464 19.5721 13.9407 19.5521 13.8318 19.5329C13.6243 19.4889 13.4136 19.4569 13.1943 19.4257C12.9987 19.3977 12.7999 19.3745 12.5963 19.3577C12.5222 19.3457 12.448 19.3417 12.3738 19.3386C12.2524 19.3265 12.1316 19.3185 12.0062 19.3145C10.7786 19.2545 9.43037 19.3665 7.99211 19.7505C7.84382 19.7897 7.69155 19.8337 7.53848 19.8808C7.1677 19.992 6.79214 20.1232 6.41266 20.2736C6.3038 20.3168 6.19811 20.3608 6.09238 20.408C6.0786 20.4139 6.06477 20.4198 6.05093 20.4256C5.95177 20.4678 5.85208 20.5102 5.75233 20.5544C5.72694 20.5661 5.7015 20.5777 5.67606 20.5894C5.5884 20.6296 5.50037 20.67 5.41234 20.7127C5.3817 20.7278 5.35086 20.7429 5.3199 20.758C5.23599 20.7989 5.15132 20.8401 5.06834 20.8839C4.42773 21.2087 3.77449 21.5934 3.11416 22.0414C3.10757 22.0454 3.1022 22.0497 3.0967 22.054C3.09232 22.0575 3.08785 22.0611 3.0826 22.0646C3.05972 22.0846 3.04789 22.0926 3.04789 22.0926C2.78201 22.2709 2.51615 22.4653 2.24633 22.6717C1.9494 22.8989 1.69181 23.1261 1.40881 23.3758C1.32714 23.4478 1.24335 23.5217 1.15589 23.5981C1.00527 23.7693 1.67594 22.9797 1.67594 22.9797L8.47261 16.0885L8.48443 16.0733L8.93805 15.6126L13.3703 11.1228C13.3703 11.1228 13.3742 11.1188 13.386 11.1075C13.39 11.0995 13.3979 11.0916 13.4018 11.0876L15.0507 9.41896C15.5825 8.87985 16.1923 8.46788 16.8455 8.18634C18.948 7.26324 21.4805 7.67601 23.2004 9.41896L29.472 15.7783L30.8075 17.0555L33.1643 19.4426C34.4983 20.8264 34.9974 22.8037 34.6661 24.6096C34.6642 24.6201 34.6622 24.6307 34.6602 24.6411Z" fill="#5686FF"/>
<path d="M27.3626 28.1699C31.0809 26.3319 32.3612 21.4165 30.2221 17.191C29.8234 16.4032 29.3339 15.695 28.7772 15.076L33.252 19.556C35.1854 21.5376 35.3651 24.7514 33.8047 26.8957C33.8046 26.8996 33.8005 26.9034 33.7964 26.9071C33.7923 26.9108 33.7891 26.9146 33.7861 26.9184C33.7829 26.9221 33.7798 26.926 33.7757 26.9297C33.5608 27.2217 33.3151 27.4981 33.0348 27.7542C31.8623 28.822 30.3537 29.3298 28.8584 29.2864C27.9538 29.2601 27.0559 29.0315 26.2423 28.6031C26.6233 28.4941 26.9979 28.3501 27.3626 28.1699Z" fill="#92B1FF"/>
</svg>
