<svg width="17" height="23" viewBox="0 0 17 23" fill="none" xmlns="http://www.w3.org/2000/svg">
<path fill-rule="evenodd" clip-rule="evenodd" d="M8.347 0.5C3.7444 0.5 0 4.0742 0 8.4675C0 13.9198 7.4697 21.9239 7.7878 22.262C8.0865 22.5796 8.608 22.579 8.9062 22.262C9.2242 21.9239 16.694 13.9198 16.694 8.4675C16.6939 4.0742 12.9495 0.5 8.347 0.5ZM8.347 11.8532C6.6893 11.8532 5.3408 10.5046 5.3408 8.8469C5.3408 7.1893 6.6894 5.8408 8.347 5.8408C10.0046 5.8408 11.3532 7.1893 11.3532 8.847C11.3532 10.5046 10.0046 11.8532 8.347 11.8532Z" fill="#7B48CC"/>
</svg>
