<svg width="24" height="25" viewBox="0 0 24 25" fill="none" xmlns="http://www.w3.org/2000/svg">
<path d="M21 10.25H20.2153C20.0269 8.20144 19.0799 6.2972 17.56 4.91077C16.0402 3.52433 14.0572 2.75574 12 2.75574C9.94279 2.75574 7.95981 3.52433 6.43998 4.91077C4.92015 6.2972 3.97314 8.20144 3.78469 10.25H3C2.80109 10.25 2.61032 10.329 2.46967 10.4697C2.32902 10.6103 2.25 10.8011 2.25 11C2.2533 12.7836 2.74415 14.5324 3.66948 16.0572C4.59481 17.582 5.9194 18.8248 7.5 19.6512L7.5 20C7.5 20.3978 7.65804 20.7794 7.93934 21.0607C8.22064 21.342 8.60218 21.5 9 21.5L15 21.5C15.3978 21.5 15.7794 21.342 16.0607 21.0607C16.342 20.7794 16.5 20.3978 16.5 20V19.6512C18.0806 18.8248 19.4052 17.582 20.3305 16.0572C21.2558 14.5324 21.7467 12.7836 21.75 11C21.75 10.8011 21.671 10.6103 21.5303 10.4697C21.3897 10.329 21.1989 10.25 21 10.25ZM18.7069 10.25L13.8862 10.25C14.7955 8.88583 16.1712 7.90017 17.7553 7.47781C18.2733 8.3203 18.5982 9.26702 18.7069 10.25ZM16.2638 5.77156C16.4356 5.91219 16.6003 6.06062 16.7578 6.21687C14.7613 6.9192 13.1114 8.36263 12.15 10.2481H9.38437C9.85313 8.93415 10.7161 7.79694 11.8555 6.99185C12.9948 6.18677 14.3549 5.75306 15.75 5.75C15.9216 5.75 16.0931 5.75844 16.2638 5.77156ZM12 4.25C12.6018 4.2504 13.2009 4.33143 13.7812 4.49094C12.3679 4.84154 11.072 5.5585 10.024 6.56958C8.97606 7.58066 8.21316 8.85011 7.81219 10.25L5.29312 10.25C5.47917 8.60081 6.26562 7.07775 7.50254 5.97119C8.73946 4.86464 10.3403 4.25197 12 4.25ZM15.4369 18.5C15.306 18.5601 15.1953 18.6566 15.1178 18.778C15.0404 18.8993 14.9994 19.0404 15 19.1844V20L9 20L9 19.1844C9.00055 19.0404 8.95965 18.8993 8.88218 18.778C8.80471 18.6566 8.69395 18.5601 8.56312 18.5C7.24417 17.8931 6.10807 16.9499 5.26885 15.7651C4.42963 14.5803 3.91681 13.1956 3.78188 11.75L20.2153 11.75C20.0806 13.1953 19.5682 14.5798 18.7295 15.7646C17.8908 16.9493 16.7553 17.8927 15.4369 18.5Z" fill="white"/>
</svg>
