<svg width="24" height="25" viewBox="0 0 24 25" fill="none" xmlns="http://www.w3.org/2000/svg">
<path fill-rule="evenodd" clip-rule="evenodd" d="M12 0.5C18.6171 0.5 24 5.8829 24 12.5C24 19.1171 18.6171 24.5 12 24.5C5.3829 24.5 0 19.1171 0 12.5C0 5.8829 5.3829 0.5 12 0.5ZM12 2.5001C6.486 2.5001 2.0001 6.986 2.0001 12.5C2.0001 18.014 6.486 22.4999 12 22.4999C17.514 22.4999 21.9999 18.014 21.9999 12.5C21.9999 6.986 17.514 2.5001 12 2.5001ZM12 4.5C16.4183 4.5 20 8.0817 20 12.5C20 16.9183 16.4183 20.5 12 20.5C7.5817 20.5 4 16.9183 4 12.5H12V4.5Z" fill="#535CE8"/>
</svg>
