<svg width="28" height="28" viewBox="0 0 28 28" fill="none" xmlns="http://www.w3.org/2000/svg">
<path d="M24.5001 7.77656C24.2941 7.88322 24.0542 7.90373 23.8331 7.83359C23.612 7.76345 23.4279 7.60839 23.321 7.40249C22.4858 5.75256 21.2217 4.35804 19.6614 3.36546C19.5641 3.30413 19.4799 3.22425 19.4135 3.13037C19.3472 3.0365 19.2999 2.93047 19.2746 2.81834C19.2492 2.70622 19.2461 2.59019 19.2656 2.47688C19.285 2.36357 19.3266 2.2552 19.3879 2.15796C19.4492 2.06072 19.5291 1.97652 19.623 1.91015C19.7169 1.84378 19.8229 1.79655 19.935 1.77116C20.0472 1.74577 20.1632 1.74272 20.2765 1.76217C20.3898 1.78162 20.4982 1.82319 20.5954 1.88453C22.4139 3.04886 23.8905 4.6753 24.8742 6.59749C24.9808 6.80347 25.0013 7.04336 24.9312 7.26446C24.8611 7.48555 24.706 7.66974 24.5001 7.77656ZM3.90588 7.87499C4.06619 7.87493 4.22339 7.83083 4.36034 7.7475C4.49728 7.66418 4.60871 7.54483 4.68245 7.40249C5.51764 5.75256 6.78181 4.35804 8.34213 3.36546C8.53852 3.2416 8.67765 3.04479 8.72893 2.81834C8.78021 2.59189 8.73944 2.35435 8.61557 2.15796C8.49171 1.96158 8.2949 1.82244 8.06845 1.77116C7.842 1.71988 7.60446 1.76066 7.40807 1.88453C5.58961 3.04886 4.11302 4.6753 3.12932 6.59749C3.06024 6.73084 3.02664 6.87973 3.03176 7.02982C3.03688 7.17992 3.08054 7.32617 3.15855 7.4545C3.23656 7.58283 3.34629 7.68893 3.47718 7.76257C3.60806 7.83622 3.7557 7.87493 3.90588 7.87499ZM24.2606 19.2434C24.4156 19.5093 24.4978 19.8113 24.4988 20.119C24.4999 20.4267 24.4198 20.7293 24.2666 20.9962C24.1134 21.263 23.8925 21.4848 23.6263 21.6391C23.3601 21.7934 23.0578 21.8748 22.7501 21.875H18.2876C18.0868 22.864 17.5502 23.7532 16.7688 24.3918C15.9874 25.0305 15.0093 25.3794 14.0001 25.3794C12.9909 25.3794 12.0128 25.0305 11.2314 24.3918C10.45 23.7532 9.91343 22.864 9.7126 21.875H5.2501C4.94256 21.8744 4.64061 21.7927 4.37467 21.6383C4.10873 21.4838 3.88819 21.262 3.73526 20.9952C3.58233 20.7284 3.50242 20.426 3.50357 20.1184C3.50472 19.8109 3.5869 19.5091 3.74182 19.2434C4.72729 17.5427 5.2501 15.1244 5.2501 12.25C5.2501 9.92935 6.17197 7.70375 7.81292 6.06281C9.45386 4.42187 11.6795 3.5 14.0001 3.5C16.3207 3.5 18.5463 4.42187 20.1873 6.06281C21.8282 7.70375 22.7501 9.92935 22.7501 12.25C22.7501 15.1233 23.2729 17.5416 24.2606 19.2434ZM16.4742 21.875H11.526C11.7073 22.3862 12.0425 22.8287 12.4856 23.1417C12.9286 23.4547 13.4577 23.6227 14.0001 23.6227C14.5425 23.6227 15.0716 23.4547 15.5147 23.1417C15.9577 22.8287 16.2929 22.3862 16.4742 21.875ZM22.7501 20.125C21.5864 18.1267 21.0001 15.4777 21.0001 12.25C21.0001 10.3935 20.2626 8.613 18.9499 7.30025C17.6371 5.98749 15.8566 5.24999 14.0001 5.24999C12.1436 5.24999 10.3631 5.98749 9.05035 7.30025C7.7376 8.613 7.0001 10.3935 7.0001 12.25C7.0001 15.4787 6.41166 18.1278 5.2501 20.125L22.7501 20.125Z" fill="#D4A90F"/>
</svg>
