<svg width="28" height="28" viewBox="0 0 28 28" fill="none" xmlns="http://www.w3.org/2000/svg">
<path d="M18 14L10 14L10 19H18V14Z" stroke="#FE763E" stroke-width="2.4" stroke-miterlimit="10" stroke-linecap="square"/>
<path d="M12 14L12 11C12.0016 10.4701 12.2128 9.96227 12.5875 9.58753C12.9623 9.2128 13.4701 9.00158 14 9C14.5299 9.00158 15.0377 9.2128 15.4125 9.58753C15.7872 9.96227 15.9984 10.4701 16 11L16 14" stroke="#FE763E" stroke-width="2.4" stroke-miterlimit="10" stroke-linecap="square"/>
<path d="M23 16C23 18.3869 22.0518 20.6761 20.364 22.364C18.6761 24.0518 16.3869 25 14 25C11.6131 25 9.32387 24.0518 7.63604 22.364C5.94821 20.6761 5 18.3869 5 16L5 6L14 4L23 6L23 16Z" stroke="#FE763E" stroke-width="2.4" stroke-miterlimit="10" stroke-linecap="square"/>
</svg>
