<svg width="12" height="13" viewBox="0 0 12 13" fill="none" xmlns="http://www.w3.org/2000/svg">
<g clip-path="url(#clip0_1_214)">
<path d="M3 8.00003C2.585 8.00003 2.21 8.17003 1.94 8.44003C1.35 9.03003 1 11.5 1 11.5C1 11.5 3.47 11.15 4.06 10.56C4.33 10.29 4.5 9.91503 4.5 9.50003C4.5 8.67003 3.83 8.00003 3 8.00003ZM3.355 9.85503C3.215 9.99503 2.27 10.235 2.27 10.235C2.27 10.235 2.505 9.29503 2.65 9.15003C2.735 9.05503 2.86 9.00003 3 9.00003C3.275 9.00003 3.5 9.22503 3.5 9.50003C3.5 9.64003 3.445 9.76503 3.355 9.85503ZM8.71 7.32503C11.89 4.14503 10.83 1.67003 10.83 1.67003C10.83 1.67003 8.355 0.610027 5.175 3.79003L3.93 3.54003C3.605 3.47503 3.265 3.58003 3.025 3.81503L1 5.84503L3.5 6.91503L5.585 9.00003L6.655 11.5L8.68 9.47503C8.915 9.24003 9.02 8.90003 8.955 8.57003L8.71 7.32503ZM3.705 5.91503L2.75 5.50503L3.735 4.52003L4.455 4.66503C4.17 5.08003 3.915 5.51503 3.705 5.91503ZM6.995 9.75003L6.585 8.79503C6.985 8.58503 7.42 8.33003 7.83 8.04503L7.975 8.76503L6.995 9.75003ZM8 6.62003C7.34 7.28003 6.31 7.82003 5.98 7.98503L4.515 6.52003C4.675 6.19503 5.215 5.16503 5.88 4.50003C8.22 2.16003 9.995 2.50503 9.995 2.50503C9.995 2.50503 10.34 4.28003 8 6.62003ZM7.5 6.00003C8.05 6.00003 8.5 5.55003 8.5 5.00003C8.5 4.45003 8.05 4.00003 7.5 4.00003C6.95 4.00003 6.5 4.45003 6.5 5.00003C6.5 5.55003 6.95 6.00003 7.5 6.00003Z" fill="#535CE8"/>
</g>
<defs>
<clipPath id="clip0_1_214">
<rect width="12" height="12" fill="white" transform="translate(0 0.5)"/>
</clipPath>
</defs>
</svg>
