<svg width="24" height="24" viewBox="0 0 24 24" fill="none" xmlns="http://www.w3.org/2000/svg">
<path d="M11.9999 14.5714C13.4201 14.5714 14.5713 13.4202 14.5713 12C14.5713 10.5798 13.4201 9.42857 11.9999 9.42857C10.5797 9.42857 9.42847 10.5798 9.42847 12C9.42847 13.4202 10.5797 14.5714 11.9999 14.5714Z" stroke="#424955" stroke-width="2.05714" stroke-miterlimit="10" stroke-linecap="square"/>
<path d="M18.8572 12C18.8562 11.5062 18.8022 11.014 18.6961 10.5317L21.0224 8.77029L19.3081 5.80114L16.6141 6.93772C15.8845 6.26889 15.0186 5.7662 14.0761 5.46429L13.7144 2.57143L10.2858 2.57143L9.92407 5.46429C8.98151 5.7662 8.11562 6.26889 7.38607 6.93772L4.69207 5.80114L2.97778 8.77029L5.30407 10.5317C5.08926 11.4988 5.08926 12.5012 5.30407 13.4683L2.97778 15.2297L4.69207 18.1989L7.38607 17.0623C8.11562 17.7311 8.98151 18.2338 9.92407 18.5357L10.2858 21.4286H13.7144L14.0761 18.5357C15.0186 18.2338 15.8845 17.7311 16.6141 17.0623L19.3081 18.1989L21.0224 15.2297L18.6961 13.4683C18.8022 12.986 18.8562 12.4938 18.8572 12Z" stroke="#424955" stroke-width="2.05714" stroke-miterlimit="10" stroke-linecap="square"/>
</svg>
