<svg width="24" height="25" viewBox="0 0 24 25" fill="none" xmlns="http://www.w3.org/2000/svg">
<path d="M16.5 15.5C15.9997 15.4999 15.5044 15.6001 15.0435 15.7948C14.5827 15.9895 14.1655 16.2746 13.8169 16.6334L9.49498 13.8556C9.83494 12.9839 9.83494 12.0162 9.49498 11.1444L13.8169 8.36658C14.466 9.03156 15.339 9.43181 16.2665 9.48973C17.194 9.54764 18.11 9.25909 18.8369 8.68003C19.5637 8.10096 20.0497 7.27263 20.2005 6.35563C20.3513 5.43863 20.1563 4.49829 19.6532 3.71692C19.1501 2.93556 18.3748 2.36883 17.4776 2.12662C16.5804 1.88441 15.6252 1.98397 14.7972 2.406C13.9693 2.82803 13.3275 3.54246 12.9964 4.41078C12.6652 5.2791 12.6683 6.23945 13.005 7.10564L8.68311 9.88345C8.16267 9.34915 7.49472 8.98218 6.76464 8.82946C6.03457 8.67674 5.27553 8.74521 4.58457 9.02611C3.8936 9.30701 3.3021 9.78758 2.88568 10.4064C2.46926 11.0252 2.24683 11.7541 2.24683 12.5C2.24683 13.2459 2.46926 13.9748 2.88568 14.5936C3.3021 15.2124 3.8936 15.693 4.58457 15.9739C5.27553 16.2548 6.03457 16.3233 6.76464 16.1706C7.49472 16.0178 8.16267 15.6509 8.68311 15.1166L13.005 17.8944C12.7155 18.6411 12.6726 19.461 12.8827 20.2338C13.0928 21.0067 13.5449 21.692 14.1726 22.1893C14.8004 22.6867 15.5709 22.97 16.3713 22.9978C17.1718 23.0255 17.9601 22.7963 18.6208 22.3437C19.2815 21.891 19.78 21.2387 20.0431 20.4823C20.3063 19.7258 20.3204 18.905 20.0833 18.14C19.8463 17.375 19.3705 16.706 18.7257 16.2309C18.0809 15.7558 17.3009 15.4997 16.5 15.5ZM16.5 3.50001C16.945 3.50001 17.38 3.63197 17.75 3.87921C18.12 4.12644 18.4084 4.47784 18.5787 4.88897C18.749 5.30011 18.7936 5.75251 18.7067 6.18897C18.6199 6.62542 18.4056 7.02633 18.091 7.341C17.7763 7.65567 17.3754 7.86996 16.9389 7.95678C16.5025 8.0436 16.0501 7.99904 15.6389 7.82874C15.2278 7.65844 14.8764 7.37006 14.6292 7.00005C14.3819 6.63003 14.25 6.19502 14.25 5.75001C14.25 5.15328 14.487 4.58098 14.909 4.15902C15.3309 3.73707 15.9032 3.50001 16.5 3.50001ZM5.99998 14.75C5.55497 14.75 5.11996 14.6181 4.74995 14.3708C4.37994 14.1236 4.09155 13.7722 3.92125 13.3611C3.75096 12.9499 3.7064 12.4975 3.79321 12.0611C3.88003 11.6246 4.09432 11.2237 4.40899 10.909C4.72366 10.5944 5.12457 10.3801 5.56103 10.2932C5.99749 10.2064 6.44989 10.251 6.86102 10.4213C7.27215 10.5916 7.62355 10.88 7.87079 11.25C8.11802 11.62 8.24998 12.055 8.24998 12.5C8.24998 13.0967 8.01293 13.669 7.59097 14.091C7.16901 14.513 6.59672 14.75 5.99998 14.75ZM16.5 21.5C16.055 21.5 15.62 21.3681 15.2499 21.1208C14.8799 20.8736 14.5915 20.5222 14.4213 20.111C14.251 19.6999 14.2064 19.2475 14.2932 18.8111C14.38 18.3746 14.5943 17.9737 14.909 17.659C15.2237 17.3444 15.6246 17.1301 16.061 17.0432C16.4975 16.9564 16.9499 17.001 17.361 17.1713C17.7722 17.3416 18.1236 17.63 18.3708 18C18.618 18.37 18.75 18.805 18.75 19.25C18.75 19.8467 18.5129 20.419 18.091 20.841C17.669 21.263 17.0967 21.5 16.5 21.5Z" fill="#000"/>
</svg>
