<svg width="60" height="61" viewBox="0 0 60 61" fill="none" xmlns="http://www.w3.org/2000/svg">
<path fill-rule="evenodd" clip-rule="evenodd" d="M42.0358 7.28068H39.5717C39.0979 7.28068 38.624 6.90158 38.624 6.33295C38.624 5.76431 39.0031 5.38522 39.5717 5.38522H44.3104C44.6895 5.38522 44.9738 5.57476 45.1633 5.95386C45.3529 6.33295 45.2581 6.71204 44.9738 6.99636L41.8463 10.1238H44.3104C44.8791 10.1238 45.2581 10.503 45.2581 11.0716C45.2581 11.6402 44.8791 12.0193 44.3104 12.0193H39.5717C39.1926 12.0193 38.9084 11.8297 38.7188 11.4507C38.5292 11.0716 38.624 10.6925 38.9084 10.4082L42.0358 7.28068ZM17.3949 7.47022C15.4995 11.0716 14.3622 15.2416 14.3622 19.6011C14.3622 33.7223 25.8297 45.1898 39.8561 45.1898C44.3104 45.1898 48.3856 44.0525 51.987 42.157C47.6274 50.118 39.1926 55.6148 29.4311 55.6148C15.3099 55.6148 3.84241 44.1473 3.84241 30.0262C3.84241 20.2645 9.3392 11.8297 17.3949 7.47022ZM55.2092 25.0032H48.9543L55.8727 18.0848C56.157 17.8004 56.2517 17.4214 56.0622 17.0423C55.8727 16.6632 55.5884 16.4737 55.2092 16.4737H46.6797C46.1111 16.4737 45.732 16.8527 45.732 17.4214C45.732 17.99 46.1111 18.3691 46.6797 18.3691H52.9347L46.0163 25.2875C45.732 25.5718 45.6372 25.9509 45.8267 26.33C46.0163 26.7091 46.3006 26.8986 46.6797 26.8986H55.2092C55.7779 26.8986 56.157 26.5196 56.157 25.9509C56.157 25.3823 55.6831 25.0032 55.2092 25.0032ZM34.5487 23.5816H31.1369C30.6631 23.5816 30.1892 23.2025 30.1892 22.6338C30.1892 22.0652 30.5683 21.6861 31.1369 21.6861H36.8233C37.2024 21.6861 37.4867 21.8756 37.6762 22.2548C37.8658 22.6338 37.771 23.013 37.4867 23.2973L33.4114 27.3725H36.8233C37.392 27.3725 37.771 27.7516 37.771 28.3203C37.771 28.8889 37.392 29.2679 36.8233 29.2679H31.1369C30.7578 29.2679 30.4735 29.0784 30.284 28.6993C30.0944 28.3203 30.1892 27.9411 30.4735 27.6568L34.5487 23.5816Z" fill="white"/>
</svg>
