<svg width="30" height="44" viewBox="0 0 30 44" fill="none" xmlns="http://www.w3.org/2000/svg">
<g clip-path="url(#clip0_1_424)">
<path fill-rule="evenodd" clip-rule="evenodd" d="M3.31661 21.8582C4.0368 24.914 5.20031 28.0377 8.36966 28.0377C11.539 28.0377 12.7024 24.914 13.4227 21.8582C13.5135 21.473 13.4272 21.0665 13.1886 20.755C12.9501 20.4435 12.5857 20.2617 12.1999 20.2617H4.53934C4.15354 20.2617 3.78913 20.4435 3.55061 20.755C3.31208 21.0665 3.22578 21.4731 3.31661 21.8582ZM8.36944 25.4528C7.88742 25.4528 7.05163 25.4528 6.20168 22.8464H10.5374C9.68742 25.4528 8.85146 25.4528 8.36944 25.4528Z" fill="#535CE8"/>
<path fill-rule="evenodd" clip-rule="evenodd" d="M1.36213 17.4941C1.45356 18.13 1.99872 18.602 2.64151 18.602H12.3919C13.0348 18.602 13.5799 18.13 13.6713 17.4941C13.7842 16.7088 13.8985 15.8528 14.0208 14.8772C14.7525 9.03148 14.0507 4.85295 11.9349 2.4582C10.7788 1.14968 9.25105 0.458008 7.51674 0.458008C5.78239 0.458008 4.2546 1.14968 3.09853 2.4582C0.98275 4.85295 0.280939 9.03119 1.01265 14.8772C1.13526 15.8551 1.2496 16.7111 1.36213 17.4941ZM11.2666 16.019H3.76738C3.70603 15.5619 3.64321 15.0767 3.5779 14.5562C2.96018 9.6208 3.47829 5.93123 5.03675 4.1672C5.69721 3.41965 6.53171 3.04058 7.51702 3.04058C8.50229 3.04058 9.33682 3.41965 9.99726 4.1672C11.5557 5.93123 12.0738 9.6208 11.4561 14.556C11.391 15.0761 11.3282 15.5612 11.2666 16.019Z" fill="#535CE8"/>
<path fill-rule="evenodd" clip-rule="evenodd" d="M18.6773 37.3387C19.3975 40.3944 20.561 43.5182 23.7303 43.5182C26.8997 43.5182 28.0632 40.3944 28.7834 37.3387C28.8742 36.9535 28.7878 36.5469 28.5493 36.2354C28.3108 35.924 27.9464 35.7422 27.5606 35.7422H19.9001C19.5142 35.7422 19.1498 35.924 18.9113 36.2354C18.6727 36.5469 18.5865 36.9536 18.6773 37.3387ZM23.7302 40.9332C23.2481 40.9332 22.4123 40.9332 21.5624 38.3268H25.8981C25.0481 40.9332 24.2122 40.9332 23.7302 40.9332Z" fill="#535CE8"/>
<path fill-rule="evenodd" clip-rule="evenodd" d="M16.7221 32.1144C16.8135 32.7503 17.3587 33.2223 18.0015 33.2223H27.7519C28.3947 33.2223 28.9399 32.7503 29.0313 32.1145C29.1438 31.3315 29.2581 30.4755 29.3808 29.4975C30.1125 23.6519 29.4107 19.4733 27.2949 17.0785C26.1388 15.7699 24.6111 15.0783 22.8767 15.0783C21.1423 15.0783 19.6146 15.7699 18.4585 17.0785C16.3427 19.4733 15.6409 23.6516 16.3726 29.4974C16.4949 30.473 16.6091 31.3291 16.7221 32.1144ZM26.626 30.6392H19.1267C19.0652 30.1815 19.0023 29.6963 18.9372 29.1764C18.3195 24.2411 18.8376 20.5515 20.3961 18.7875C21.0565 18.04 21.891 17.6609 22.8763 17.6609C23.8616 17.6609 24.696 18.0399 25.3566 18.7875C26.915 20.5515 27.4332 24.241 26.8154 29.1762C26.7502 29.6969 26.6873 30.182 26.626 30.6392Z" fill="#535CE8"/>
</g>
<defs>
<clipPath id="clip0_1_424">
<rect width="30" height="43" fill="white" transform="translate(0 0.5)"/>
</clipPath>
</defs>
</svg>
