<svg width="60" height="61" viewBox="0 0 60 61" fill="none" xmlns="http://www.w3.org/2000/svg">
<path fill-rule="evenodd" clip-rule="evenodd" d="M36.4178 6.65084C36.4178 9.66505 38.8613 12.1085 41.8755 12.1085C44.8897 12.1085 47.3332 9.66505 47.3332 6.65084C47.3332 3.63662 44.8897 1.19312 41.8755 1.19312C38.8613 1.19312 36.4178 3.63662 36.4178 6.65084ZM22.7587 29.0207C21.5086 31.1551 14.0716 43.7996 7.56766 53.5069C4.89881 56.9401 10.2309 61.0423 12.8963 57.616C15.4588 54.3214 18.0225 49.7703 20.5864 45.2188C22.3923 42.0131 24.1981 38.8072 26.0039 36.0399C26.2666 36.6898 26.7399 37.2797 27.4917 37.7077C30.686 39.524 33.4817 41.9562 35.8527 44.7519C35.2845 47.0024 34.7158 49.2521 34.1473 51.5014C33.7698 52.9947 33.3923 54.4878 33.0151 55.981C31.9519 60.1932 38.577 61.3821 39.6312 57.197C40.6254 53.2702 41.6173 49.3456 42.6103 45.4143C42.6975 45.07 42.7167 44.753 42.7077 44.4473C42.95 43.6286 42.8266 42.6978 42.1065 41.7932C39.5259 38.5491 36.5808 35.7375 33.2099 33.4129C34.7431 30.4327 36.343 27.4932 37.9815 24.5719C40.6866 28.3187 44.2544 31.1653 49.2219 32.6192C53.1725 33.7742 54.8483 27.6291 50.9147 26.4787C45.8895 25.0067 42.8946 21.4796 40.8088 16.9627C40.1543 13.8184 36.5389 11.642 33.4544 12.4675C33.4175 12.4675 33.3822 12.4654 33.3469 12.4634C33.2912 12.4602 33.2358 12.4569 33.1748 12.4618C29.3919 12.7548 25.609 13.0487 21.8253 13.3426L20.9345 13.4118C17.9061 13.647 16.1711 17.8144 14.8438 21.0028C14.4902 21.8521 14.1655 22.6318 13.8531 23.2494C12.0018 26.9044 17.4946 30.1292 19.3505 26.4639C19.8362 25.5052 20.3215 24.546 20.8067 23.5867C21.4729 22.2699 22.1392 20.9529 22.8074 19.6362C23.1901 19.6065 23.573 19.5768 23.9562 19.5471C25.2543 19.4466 26.5544 19.3458 27.8518 19.2443C26.2666 22.0876 24.7131 24.9501 23.2274 27.8453C23.0214 28.2406 22.872 28.6335 22.7587 29.0207Z" fill="white"/>
</svg>
