<svg width="28" height="29" viewBox="0 0 28 29" fill="none" xmlns="http://www.w3.org/2000/svg">
<path d="M20 2.5C17.1 2.5 15 5.1 15 8.5C15 9.7 15.2 10.5 15.4 11.4C15.7 12.4 16 13.5 16 15.5C16 16.1 16.4 16.5 17 16.5H23C23.5 16.5 23.9 16.2 24 15.7C24 15.5 25 11.5 25 8.5C25 5.1 22.9 2.5 20 2.5Z" fill="white"/>
<path d="M8 4.5C5.1 4.5 3 7.1 3 10.5C3 13.6 4 17.6 4 17.7C4.1 18.2 4.5 18.5 5 18.5H11C11.6 18.5 12 18.1 12 17.5C12 15.5 12.3 14.4 12.6 13.4C12.8 12.5 13 11.7 13 10.5C13 7.1 10.9 4.5 8 4.5Z" fill="white"/>
<path d="M11.3 20.5L4.7 20.5C4.3 20.5 3.9 20.8 3.8 21.2C3.6 22 3.6 22.9 3.9 23.7C4.7 25.5 6.3 26.5 8 26.5C9.6 26.5 11.1 25.6 11.8 24.1C12.2 23.2 12.3 22.2 12.1 21.2C12.1 20.8 11.7 20.5 11.3 20.5Z" fill="white"/>
<path d="M23.3 18.5L16.7 18.5C16.3 18.5 15.9 18.8 15.8 19.2C15.6 20 15.6 20.9 15.9 21.7C16.6 23.4 18.2 24.5 19.9 24.5C21.5 24.5 23 23.6 23.7 22.1C24.1 21.2 24.2 20.2 24 19.2C24.1 18.8 23.7 18.5 23.3 18.5Z" fill="white"/>
</svg>
