<svg width="20" height="21" viewBox="0 0 20 21" fill="none" xmlns="http://www.w3.org/2000/svg">
<g clip-path="url(#clip0_1_87)">
<path d="M9.99998 6.33331C7.69998 6.33331 5.83331 8.19998 5.83331 10.5C5.83331 12.8 7.69998 14.6666 9.99998 14.6666C12.3 14.6666 14.1666 12.8 14.1666 10.5C14.1666 8.19998 12.3 6.33331 9.99998 6.33331ZM1.66665 11.3333H3.33331C3.79165 11.3333 4.16665 10.9583 4.16665 10.5C4.16665 10.0416 3.79165 9.66665 3.33331 9.66665H1.66665C1.20831 9.66665 0.833313 10.0416 0.833313 10.5C0.833313 10.9583 1.20831 11.3333 1.66665 11.3333ZM16.6666 11.3333H18.3333C18.7916 11.3333 19.1666 10.9583 19.1666 10.5C19.1666 10.0416 18.7916 9.66665 18.3333 9.66665H16.6666C16.2083 9.66665 15.8333 10.0416 15.8333 10.5C15.8333 10.9583 16.2083 11.3333 16.6666 11.3333ZM9.16665 2.16665V3.83331C9.16665 4.29165 9.54165 4.66665 9.99998 4.66665C10.4583 4.66665 10.8333 4.29165 10.8333 3.83331V2.16665C10.8333 1.70831 10.4583 1.33331 9.99998 1.33331C9.54165 1.33331 9.16665 1.70831 9.16665 2.16665ZM9.16665 17.1666V18.8333C9.16665 19.2916 9.54165 19.6666 9.99998 19.6666C10.4583 19.6666 10.8333 19.2916 10.8333 18.8333V17.1666C10.8333 16.7083 10.4583 16.3333 9.99998 16.3333C9.54165 16.3333 9.16665 16.7083 9.16665 17.1666ZM4.99165 4.31665C4.66665 3.99165 4.13331 3.99165 3.81665 4.31665C3.49165 4.64165 3.49165 5.17498 3.81665 5.49165L4.69998 6.37498C5.02498 6.69998 5.55831 6.69998 5.87498 6.37498C6.19165 6.04998 6.19998 5.51665 5.87498 5.19998L4.99165 4.31665ZM15.3 14.625C14.975 14.3 14.4416 14.3 14.125 14.625C13.8 14.95 13.8 15.4833 14.125 15.8L15.0083 16.6833C15.3333 17.0083 15.8666 17.0083 16.1833 16.6833C16.5083 16.3583 16.5083 15.825 16.1833 15.5083L15.3 14.625ZM16.1833 5.49165C16.5083 5.16665 16.5083 4.63331 16.1833 4.31665C15.8583 3.99165 15.325 3.99165 15.0083 4.31665L14.125 5.19998C13.8 5.52498 13.8 6.05831 14.125 6.37498C14.45 6.69165 14.9833 6.69998 15.3 6.37498L16.1833 5.49165ZM5.87498 15.8C6.19998 15.475 6.19998 14.9416 5.87498 14.625C5.54998 14.3 5.01665 14.3 4.69998 14.625L3.81665 15.5083C3.49165 15.8333 3.49165 16.3666 3.81665 16.6833C4.14165 17 4.67498 17.0083 4.99165 16.6833L5.87498 15.8Z" fill="#565E6C"/>
</g>
<defs>
<clipPath id="clip0_1_87">
<rect width="20" height="20" fill="white" transform="translate(0 0.5)"/>
</clipPath>
</defs>
</svg>
