<svg width="28" height="29" viewBox="0 0 28 29" fill="none" xmlns="http://www.w3.org/2000/svg">
<path d="M7 14.5C7 18.4 10.1 21.5 14 21.5C17.9 21.5 21 18.4 21 14.5C21 10.6 17.9 7.5 14 7.5C10.1 7.5 7 10.6 7 14.5ZM19 14.5C19 17.3 16.8 19.5 14 19.5C11.2 19.5 9 17.3 9 14.5C9 11.7 11.2 9.5 14 9.5C16.8 9.5 19 11.7 19 14.5Z" fill="white"/>
<path d="M14 16.5C15.1046 16.5 16 15.6046 16 14.5C16 13.3954 15.1046 12.5 14 12.5C12.8954 12.5 12 13.3954 12 14.5C12 15.6046 12.8954 16.5 14 16.5Z" fill="white"/>
<path d="M22 9.5C23.6569 9.5 25 8.15685 25 6.5C25 4.84315 23.6569 3.5 22 3.5C20.3431 3.5 19 4.84315 19 6.5C19 8.15685 20.3431 9.5 22 9.5Z" fill="white"/>
<path d="M25.2 10.3C24.7 10.7 24.1 11.1 23.4 11.3C23.8 12.3 23.9 13.4 23.9 14.5C23.9 20 19.4 24.5 13.9 24.5C8.4 24.5 4 20 4 14.5C4 9 8.5 4.5 14 4.5C15.1 4.5 16.2 4.7 17.2 5C17.4 4.3 17.7 3.7 18.2 3.2C16.9 2.8 15.5 2.5 14 2.5C7.4 2.5 2 7.9 2 14.5C2 21.1 7.4 26.5 14 26.5C20.6 26.5 26 21.1 26 14.5C26 13 25.7 11.6 25.2 10.3Z" fill="white"/>
</svg>
